<svg width="180" height="160" viewBox="0 0 180 160" fill="none" xmlns="http://www.w3.org/2000/svg">
<g clip-path="url(#clip0_50_2)">
<path fillRule="evenodd" clipRule="evenodd" d="M51.6176 80C21.1093 73.2774 -7.79741e-07 58.7891 0 42C1.95062e-06 18.8041 40.2944 -2.045e-06 90 0C139.706 3.703e-06 180 18.8041 180 42C180 58.7891 158.891 73.2774 128.382 80C158.891 86.7227 180 101.211 180 118C180 141.196 139.706 160 90 160C40.2944 160 -1.0773e-06 141.196 0 118C1.41185e-06 101.211 21.1093 86.7227 51.6176 80Z" fill="#FFC700"/>
<path d="M99.9999 108.945V105.297H92.0799H86.9679L99.9999 96.0571V92.6971H83.1999V96.3451H89.5839H93.8319L83.1999 103.881V108.945H99.9999ZM99.9999 88.6716V85.0236H83.1999V88.6716H99.9999ZM100.384 73.3281C100.384 69.2721 98.4159 66.7281 95.1759 65.5041L93.8799 68.7201C95.8959 69.4401 97.3359 70.9281 97.3359 73.3281C97.3359 76.4001 95.2239 78.2001 91.5759 78.2001C87.9279 78.2001 85.8399 76.3521 85.8399 73.3281C85.8399 70.9281 87.2319 69.5361 89.2719 68.8161L87.9999 65.5281C85.0239 66.4161 82.8159 69.2481 82.8159 73.2801C82.8159 78.4641 86.6319 82.0161 91.5759 82.0161C96.6879 82.0161 100.384 78.5841 100.384 73.3281ZM99.9999 62.8669V50.1709H96.9759V59.2189H92.8479V52.3789H89.8719V59.2189H86.2239V50.1709H83.1999V62.8669H99.9999Z" fill="black"/>
</g>
<defs>
<clipPath id="clip0_50_2">
<rect width="180" height="160" fill="white"/>
</clipPath>
</defs>
</svg>
