<svg width="58" height="56" viewBox="0 0 58 56" fill="none" xmlns="http://www.w3.org/2000/svg">
<path d="M19.8794 32.9467L5.83203 43.3819C5.37741 43.7196 5.2937 44.3671 5.64749 44.8094L10.2438 50.5548C10.6361 51.0451 11.378 51.0568 11.7855 50.579L23.674 36.6408C24.2848 35.9247 25.4565 36.3721 25.4346 37.313L25.0238 54.9767C25.0107 55.538 25.4621 56 26.0235 56H31.5C32.0523 56 32.5 55.5523 32.5 55V37.6507C32.5 36.675 33.7543 36.2769 34.317 37.074L43.8599 50.5932C44.2021 51.078 44.8888 51.1598 45.3354 50.7691L51.5625 45.3203C52.0438 44.8992 52.0116 44.1409 51.4964 43.7621L37.9557 33.8057C37.1776 33.2335 37.5823 32 38.5481 32H56.5C57.0523 32 57.5 31.5523 57.5 31V25.5225C57.5 24.9615 57.0386 24.5103 56.4778 24.5227L38.1389 24.9302C37.1645 24.9519 36.7379 23.709 37.5203 23.1278L51.5999 12.6687C52.0795 12.3124 52.1417 11.6178 51.7331 11.182L45.8364 4.89216C45.4041 4.43104 44.6578 4.48165 44.2917 4.99689L33.4613 20.2396C32.8841 21.0519 31.6038 20.6125 31.6471 19.617L32.4546 1.04344C32.4794 0.474644 32.0249 0 31.4556 0H27C26.4477 0 26 0.447716 26 1V19C26 19.961 24.7766 20.3688 24.2 19.6L13.1439 4.85856C12.7959 4.39452 12.1273 4.32298 11.689 4.70287L5.89173 9.72717C5.42487 10.1318 5.43293 10.8587 5.90864 11.2529L20.0251 22.9493C20.7809 23.5756 20.2762 24.8023 19.2985 24.7154L1.08854 23.0968C0.503612 23.0448 0 23.5056 0 24.0928V30.9546C0 31.5243 0.475251 31.9789 1.0444 31.9536L19.2387 31.1449C20.2238 31.1012 20.671 32.3587 19.8794 32.9467Z" fill="#C7B9FF"/>
</svg>
