<svg width="51" height="54" viewBox="0 0 51 54" fill="none" xmlns="http://www.w3.org/2000/svg">
<path d="M50.4615 14.6745L32.2732 0.217177C32.0963 0.0765518 31.877 0 31.651 0H11.5429C10.5776 0 10.1726 1.23244 10.9497 1.80506L26.4394 13.2185C26.9723 13.6111 26.9836 14.4038 26.4622 14.8114L0.877967 34.8136C0.409217 35.1801 0.362233 35.8723 0.777164 36.2988L17.7055 53.6974C17.8938 53.8908 18.1523 54 18.4223 54H40.0395C40.9369 54 41.3801 52.9095 40.7371 52.2835L24.3573 36.3347C23.9107 35.8999 23.9664 35.1668 24.4737 34.8045L50.4205 16.2711C50.9613 15.8848 50.9818 15.0881 50.4615 14.6745Z" fill="#F24E1E"/>
</svg>
