<svg width="56" height="50" viewBox="0 0 56 50" fill="none" xmlns="http://www.w3.org/2000/svg">
<path d="M55.5 5.17741V2C55.5 0.895431 54.6046 0 53.5 0H2C0.895431 0 0 0.89543 0 2V5C0 6.10457 0.891735 7.01235 1.99156 7.11458C7.47147 7.62392 22.3164 10.3974 21.5 25.5C20.6949 40.3943 7.25026 42.9731 2.04005 43.4126C0.920364 43.507 0 44.4257 0 45.5494V47.5C0 48.6046 0.895429 49.5 2 49.5H53.5C54.6046 49.5 55.5 48.6046 55.5 47.5V45.359C55.5 44.3111 54.6944 43.4313 53.6602 43.2619C48.6151 42.4356 34.9077 38.9552 34.5 25.5C34.0889 11.9336 48.5502 8.16955 53.7056 7.25992C54.7226 7.08046 55.5 6.21021 55.5 5.17741Z" fill="#F24E1E"/>
</svg>
