<svg width="51" height="51" viewBox="0 0 51 51" fill="none" xmlns="http://www.w3.org/2000/svg">
<path fillRule="evenodd" clipRule="evenodd" d="M0 4C0 1.79089 1.79077 0 4 0H7H36.5C38.4331 0 40 1.56702 40 3.5C40 5.43298 38.4331 7 36.5 7H7V15H47C49.2092 15 51 16.7909 51 19V22V32C51 34.2091 49.2092 36 47 36H44H23V43H45C47.2092 43 49 44.7909 49 47C49 49.2091 47.2092 51 45 51H23H19C16.7908 51 15 49.2091 15 47V36V33C15 30.7909 16.7908 29 19 29H44V22H7H4C1.79077 22 0 20.2091 0 18V4Z" fill="#FFC700"/>
</svg>
